<svg width="24" height="30" viewBox="0 0 24 30" fill="none" xmlns="http://www.w3.org/2000/svg">
<path d="M23.6299 21.5751V21.6429C23.5621 21.8463 23.4943 22.1175 23.3587 22.3209C22.8163 23.7447 22.0706 25.0329 21.1892 26.2532C20.7146 26.9312 20.24 27.5414 19.6298 28.0838C18.6129 28.9652 17.5281 29.3042 16.2399 28.9652C15.8332 28.8296 15.3586 28.694 14.9518 28.4906C13.4602 27.8126 11.9687 27.8126 10.4771 28.4228C10.0703 28.6262 9.59576 28.7618 9.18897 28.9652C8.64659 29.1686 8.03641 29.2364 7.49403 29.1686C6.88385 29.1008 6.34146 28.7618 5.86688 28.355C5.2567 27.8126 4.71432 27.2024 4.23973 26.5244C3.22276 25.1684 2.34139 23.7447 1.73121 22.1175C0.917639 19.9479 0.443054 17.7105 0.57865 15.4053C0.646448 14.3205 0.849841 13.2357 1.32443 12.1509C2.0702 10.3203 3.29056 8.96436 5.1211 8.15076C6.54486 7.54057 7.96861 7.40497 9.46017 7.94736C10.0703 8.15076 10.6805 8.42196 11.2907 8.62536C11.8331 8.82876 12.3755 8.96436 12.9857 8.76096C13.528 8.55756 14.0704 8.35416 14.6128 8.15076C15.7654 7.67616 16.9857 7.40497 18.2739 7.60837C19.6976 7.81176 20.9858 8.28636 22.0706 9.23555C22.4096 9.57455 22.7485 9.91355 23.0197 10.3203C22.7485 10.5237 22.4095 10.7949 22.1384 10.9983C20.0366 12.8289 19.4942 15.5409 20.3078 17.8461C20.8502 19.3377 21.8672 20.4225 23.1553 21.1683C23.2231 21.3717 23.4265 21.5073 23.6299 21.5751Z" fill="white"/>
<path d="M17.6631 0.694336C17.8665 2.38932 17.3241 3.81311 16.3071 5.10131C15.4935 6.1183 14.4766 6.7963 13.2562 7.13529C12.9172 7.27089 12.5104 7.27089 12.1036 7.27089C11.9681 7.27089 11.9681 7.20309 11.9003 7.13529C11.8325 6.5929 11.9003 6.0505 12.0358 5.5081C12.5782 3.60972 13.7308 2.18593 15.5613 1.30453C16.1715 1.03333 16.7817 0.829935 17.3919 0.762136H17.4597C17.5953 0.694336 17.5953 0.694336 17.6631 0.694336Z" fill="white"/>
</svg>
