<svg width="25" height="29" viewBox="0 0 25 29" fill="none" xmlns="http://www.w3.org/2000/svg">
<path d="M0.948901 26.7464C0.67771 26.3396 0.609912 25.9328 0.542114 25.526C0.542114 25.3226 0.542114 25.1192 0.542114 24.9836C0.542114 18.0004 0.542114 10.9495 0.542114 3.96628C0.542114 3.3561 0.745507 2.74592 1.0845 2.27134C1.0845 2.20354 1.15229 2.20354 1.15229 2.13574L1.22009 2.20354C1.42349 2.47473 1.69468 2.74592 1.89807 3.01711C2.37266 3.5595 2.84724 4.10188 3.38962 4.64426C4.0676 5.39004 4.74558 6.13581 5.42356 6.94939C5.89814 7.49177 6.44053 8.03415 6.91511 8.64433C7.86428 9.7291 8.81345 10.7461 9.76262 11.8308C10.4406 12.5766 11.1186 13.3224 11.7966 14.0682C11.9322 14.2038 12.0677 14.3394 12.1355 14.4749C12.1355 14.4749 12.1355 14.4749 12.0677 14.5427C10.2372 16.5767 8.40666 18.5428 6.57612 20.5768C5.49136 21.7293 4.47439 22.9497 3.38962 24.1022C2.64385 24.9158 1.83027 25.865 0.948901 26.7464Z" fill="#4285F5"/>
<path d="M0.948486 26.7468C1.82986 25.7977 2.64343 24.8485 3.5248 23.9671C4.60957 22.8146 5.62654 21.5942 6.7113 20.4416C8.54184 18.4077 10.3724 16.4416 12.2029 14.4076C12.2029 14.4076 12.2029 14.4076 12.2707 14.3398C12.4741 14.5432 12.6775 14.8144 12.8809 15.0178C13.0843 15.289 13.3555 15.4924 13.5589 15.7636C13.9657 16.2382 14.3725 16.645 14.7792 17.1196C15.1182 17.4585 15.4572 17.7975 15.7284 18.2043C16.1352 18.6789 16.6098 19.1535 17.0166 19.6959C17.22 19.8993 17.4234 20.1027 17.559 20.3739C17.3556 20.5094 17.0844 20.645 16.8132 20.7806C12.8131 23.0858 8.88083 25.3909 4.88076 27.696C4.54177 27.8994 4.13498 28.1028 3.7282 28.1706C3.45701 28.2384 3.18582 28.2384 2.98242 28.1706C2.16885 27.9672 1.49087 27.5604 0.948486 26.7468C0.948486 26.8146 0.948486 26.8146 0.948486 26.7468Z" fill="#EB4132"/>
<path d="M17.5591 20.3736C17.3557 20.1702 17.1523 19.9668 17.0167 19.6957C16.6099 19.2211 16.1354 18.7465 15.7286 18.2041C15.3896 17.8651 15.0506 17.5261 14.7794 17.1193C14.3726 16.6447 13.9658 16.238 13.559 15.7634C13.3556 15.4922 13.0844 15.2888 12.8811 15.0176C12.6777 14.8142 12.4743 14.543 12.2709 14.3396L12.3387 14.2718C13.559 12.9159 14.7794 11.6277 15.9998 10.2718C16.4743 9.72937 16.9489 9.25479 17.4235 8.7124C17.6947 8.848 17.9659 9.05139 18.3049 9.18699C19.9998 10.1362 21.6948 11.1531 23.3219 12.1023C24.3389 12.7125 24.8135 13.5938 24.7457 14.7464C24.6779 15.7634 24.2033 16.5092 23.3219 17.0515C22.4405 17.5939 21.5592 18.0685 20.6778 18.6109C19.7286 19.1533 18.7117 19.6956 17.7625 20.3058C17.6947 20.3058 17.6269 20.3058 17.5591 20.3736Z" fill="#FFBB00"/>
<path d="M17.356 8.71333C16.8814 9.25571 16.4068 9.73029 15.9322 10.2727C14.7119 11.6286 13.4915 12.9168 12.2711 14.2727L12.2033 14.3405C12.1355 14.205 11.9999 14.0694 11.8644 13.9338C11.1864 13.188 10.5084 12.4422 9.83042 11.6964C8.88125 10.6117 7.93208 9.5947 6.98291 8.50993C6.50832 7.96755 5.96594 7.42517 5.49136 6.81499C4.81338 6.06921 4.1354 5.32344 3.45742 4.50986C2.98284 3.96748 2.50825 3.4251 1.96587 2.88271C1.76248 2.61152 1.49128 2.34033 1.28789 2.06914L1.22009 2.00134C1.28789 1.86575 1.42349 1.79795 1.49128 1.66235C1.89807 1.25557 2.37266 1.05217 2.98284 0.984375C3.05063 0.984375 3.05063 0.984375 3.11843 0.984375C3.32183 0.984375 3.52522 0.984375 3.66082 0.984375C3.72861 0.984375 3.79641 0.984375 3.79641 0.984375C4.1354 1.05217 4.54219 1.18777 4.81338 1.39116C7.99988 3.2217 11.1186 5.05224 14.3051 6.88279C15.2542 7.42517 16.2034 7.96755 17.1526 8.50993C17.2882 8.71333 17.2882 8.71333 17.356 8.71333Z" fill="#00AE45"/>
</svg>
